<svg fill="none" height="158" width="280" xmlns="http://www.w3.org/2000/svg"><clipPath id="prefix__a"><path d="M0 0h280v157.5H0z"/></clipPath><mask id="prefix__b" fill="#fff"><path clip-rule="evenodd" d="M94.794 27.306c1.435-.965 22.374-13.788 71.52 10.038 46.422 22.507 93.441-3.394 101.893-8.576.28-.172.747.276.595.566l-8.543 16.455c-.135.26.047.57.339.574 2.203.04 9.886.162 18.489.086.356-.004.557.403.296.647-5.801 5.427-46.742 42.626-78.758 42.488-34.536-.15-53.204-8.297-75.262-14.493C103.642 68.991 91.315 66.848 78 69c0 0 13.211-32.164 16.141-39.974a89.61 89.61 0 01.653-1.72z" fill-rule="evenodd"/></mask><g clip-path="url(#prefix__a)"><path clip-rule="evenodd" d="M-36 79.737s1.698 2.127 4.557 5.544C-21.255 97.454-7.63 118.65 7.86 125.687c19.837 9.013 40.433 8.349 40.433 8.349s13.883-71.865 14.591-70.734c.709 1.13-24.322-9.866-37.515-13.22C12.175 46.73-2.769 34.032-6.799 30" fill="#fff" fill-rule="evenodd"/><path d="M-36 79.885s24.137 36.822 44.007 45.802c19.87 8.981 40.533 8.107 40.533 8.107l17.253-69.952S24.163 55.79-6.652 30" stroke="#000" stroke-linecap="square" stroke-linejoin="round" stroke-width="3"/><g clip-rule="evenodd" fill-rule="evenodd"><path d="M63.996 63.094c-4.584-.33-14.354-1.485-22.91 31.395-8.556 32.88 2.97 39.598 7 38.82 4.03-.778 11.809-3.889 24.395-33.728 12.586-29.84-3.901-36.157-8.485-36.487z" fill="#fff" stroke="#000" stroke-linecap="round" stroke-linejoin="round" stroke-width="3"/><path d="M94.794 27.306c1.435-.965 22.374-13.788 71.52 10.038 46.422 22.507 93.441-3.394 101.893-8.576.28-.172.747.276.595.566l-8.543 16.455c-.135.26.047.57.339.574 2.203.04 9.886.162 18.489.086.356-.004.557.403.296.647-5.801 5.427-46.742 42.626-78.758 42.488-34.536-.15-53.204-8.297-75.262-14.493C103.642 68.991 91.315 66.848 78 69c0 0 13.211-32.164 16.141-39.974a89.61 89.61 0 01.653-1.72z" fill="#000" mask="url(#prefix__b)" stroke="#000" stroke-width="6"/><path d="M107.087 35.793c-.537 2.961-1.565 8.047-3.708 14.616-4.437 10.472 3.061 8.793 5.224 4.443a298.987 298.987 0 002.601-5.007l6.719 2.61s-.555 3.062-1.12 5.596c-2.142 6.568 4.025 5.805 5.751.953.77-2.495 4.35-12.914 5.349-18.427 1.485-3.525-3.532-6.77-5.834-1.075-1.226 2.095-3.221 6.687-3.221 6.687s-5.548-2.077-5.613-2.3c-.215-.567.473-2.023.508-3.388-.297-9.445-5.934-8.69-6.656-4.708zM137.292 42.83c1.728-3.404 3.697-3.967 5.159-3.805.632.054 1.484 1.341 2.135 2.577 2.113 8.129-1.802 23.044-2.487 24.044-2.359 3.775-6.468 3.041-4.888-1.04.74-2.482 1.531-4.737 1.531-4.737l-5.32-.617c-4.217 8.107-7.962 4.689-5.78 1.188 2.335-4.101 7.313-13.082 9.65-17.61zm-1.804 10.434l5.243.918s1.497-9.232-.146-8.264zM164.057 50.746c.702-1.954-.722-6.385-5.769-5.668-7.306.02-9.889 12.81-9.889 12.81s-1.242 6.194.656 10.428c1.724 4.081 5.949 4.112 6.769 4.22 4.801-1.422 3.173-4.624 2.353-4.73-1.043-.058-2.46.107-3.599-.83-1.933-1.572-1.57-5.537-1.139-7.67 1.006-3.583 3.22-10.7 6.693-8.94 2.077 2.677 3.548 1.458 3.925.38zM168.318 50.446c-1.302 3.917.29 8.056-2.953 15.51-.775 1.82-2.667 5.157-2.892 5.63-1.793 3.364 1.811 5.366 5.816-.507.971-1.343 2.048-4.787 2.048-4.787l1.732-.187s1.484 6.664 1.82 9.518c.36 2.753 5.229 4.34 5.322-1.061-.166-1.852-.8-4.358-1.999-7.543 0 0-.783-2.332-1.549-2.638 0 0 5.463-5.386 5.99-7.483.553-2.197-.431-3.73-4.701-.16-4.268 3.57-4.767 4.716-4.767 4.716s1.031-4.52.946-7.946c.384-3.624-3.688-6.28-4.813-3.062zM195.897 57.549c-1.833 1.802-2.996 5.193-2.89 10.332.221 7.672 3.38 12.093 8.81 11.24 5.431-.855 4.17-4.776 3.671-4.907-.4-.106-.499-.567-2.727.26-2.23.827-3.901-.157-5.29-3.568-.916-2.307-1.399-6.785.286-9.278.503-.738.978-.938 1.229-1.09 1.003-.607 2.026-.01 2.201.144 2.793 2.04 3.351-.205 2.359-2.207-1.965-2.801-4.589-3.383-7.649-.926zM208 57.857c-.014-2.912 3.002-5.144 4.03 1.372 1.288 4.213.92 12.346 1.543 13.102.624.756 5.291-.275 6.555-.695 1.263-.418 3.586.149 3.056 1.41-.432 1.29-1.636 1.406-1.887 1.556-.25.15-10.801 3.228-11.184 1.147-.382-2.081-.403-3.038-.782-6.581-.379-3.545-1.317-8.4-1.331-11.311zM221.016 55.156c-.22-2.106 1.932-3.383 3.187-1.117.952 1.756 2.036 9.37 3.59 12.576.853 1.3 2.62 1.54 3.459.356.992-1.794.301-6.286-.292-9.89-.423-1.727-.914-3.049-.884-4.012.391-3.242 2.989-2.462 4.189.868.997 3.709 2.025 9.699 1.487 11.825-.513 2.024-1.053 4.58-3.682 5.195-.683.147-6.368.942-8.34-5.284-1.896-6.53-2.494-8.411-2.714-10.517zM238.676 48.35c3.504-2.097 6.128-2.81 8.173-2.061 1.195.741 1.962 2.769 1.631 4.51-.38 1.514-1.01 2.747-1.01 2.747 2.073.218 3.582 2.294 3.964 5.003.383 2.71-2.179 5.247-6.929 6.804-1.6.443-3.297.43-3.371-.126-.046-1.088-4.017-14.057-4.017-14.057-.122-.785-.543-1.647 1.559-2.82zm1.439 2.311l1.733 4.107s4.251-1.687 3.761-3.965c-.492-2.279-3.168-.933-5.494-.142zm2.32 7.27s1.18 5.04 1.131 4.812c-.024-.33 6.195-1.54 4.883-4.785-1.312-3.245-6.014-.026-6.014-.026z" fill="#fff"/></g><path d="M94.5 28L58 118.327h3.699L96.953 30z" fill="#000"/><path d="M65 86.123c1.697.706 11.384.777 9.475 4.1-1.91 3.324 5.02 8.415 8.839 1.91s-1.344-14.92-9.122-12.799C66.414 81.456 65 86.122 65 86.122zM59 102.122c1.697.707 11.384.778 9.475 4.102-1.91 3.323 5.02 8.414 8.839 1.909 3.818-6.506-1.344-14.92-9.122-12.799-7.778 2.122-9.192 6.788-9.192 6.788zM55 119.122c1.697.707 11.384.778 9.475 4.102-1.91 3.323 5.02 8.414 8.839 1.909 3.818-6.506-1.344-14.92-9.122-12.799-7.778 2.121-9.192 6.788-9.192 6.788z" fill-rule="evenodd" clip-rule="evenodd" fill="#fff" stroke="#000" stroke-width="3" stroke-linecap="round" stroke-linejoin="round"/></g></svg>